<svg xmlns="http://www.w3.org/2000/svg" xmlns:svgjs="http://svgjs.com/svgjs" xmlns:xlink="http://www.w3.org/1999/xlink" width="288" height="288"><svg xmlns="http://www.w3.org/2000/svg" width="288" height="288" data-name="Layer 1" viewBox="0 0 315.28 276.99"><path fill="#e19717" d="M87.47 161.88L78.88 139.3 76 140.38l-1.16-3a6.64 6.64 0 001.49-.74 2.33 2.33 0 00.78-.86 2.11 2.11 0 00.19-1.11 7.26 7.26 0 00-.26-1.47l3.22-1.23 10.86 28.55zM98.21 157.93l-1.42-4.72a13.3 13.3 0 01-.65-3.74A8.19 8.19 0 0197 146.1a23.25 23.25 0 011.1-2.06c.43-.71.87-1.4 1.32-2.08s.88-1.34 1.28-2a13.53 13.53 0 001-1.78 4.38 4.38 0 00.47-2 9.15 9.15 0 00-.42-2.18l-.49-1.63a4.25 4.25 0 00-1.36-2.28 3 3 0 00-2.57-.09c-1.21.36-1.91.9-2.11 1.62a5.3 5.3 0 00.23 2.84l.61 2-3.7 1.12L91.8 136a23 23 0 01-.78-3.37 5.54 5.54 0 01.23-2.66 4.53 4.53 0 011.59-2.06 10.58 10.58 0 013.36-1.54 11.29 11.29 0 013.43-.58 4.48 4.48 0 014.08 2.47 14.73 14.73 0 011.19 2.93l.59 1.94a9.15 9.15 0 01.48 3.27 7.83 7.83 0 01-.72 2.66c-.28.57-.62 1.19-1 1.88s-.85 1.37-1.3 2.07-.86 1.37-1.24 2-.68 1.23-.92 1.72a5.43 5.43 0 00-.61 2.53 9.41 9.41 0 00.33 2l.61 2 9.65-2.91 1 3.48zM131.1 142a8.23 8.23 0 01-.63 6 8.27 8.27 0 01-10.41 2.24q-2.15-1.49-2.91-5.28l-.3-1.48 3.83-.78.35 1.71q.7 3.51 3.69 2.91 3.15-.64 2.43-4.21l-.81-4a3.35 3.35 0 00-1.21-2.15 3.57 3.57 0 00-2.81-.27l-1.89.38-.69-3.38 2-.41a3 3 0 002.29-1.34 3.67 3.67 0 00.17-2.26l-.57-2.8a3.73 3.73 0 00-1.16-2.09 2.7 2.7 0 00-2.46-.45 2.83 2.83 0 00-2 1.32 3.48 3.48 0 00-.29 2.48l.35 1.76-3.83.78-.28-1.4a7.79 7.79 0 01.71-5.73 6.62 6.62 0 014.64-3 7.38 7.38 0 013.13 0 6 6 0 012.38 1.06 6.1 6.1 0 011.62 1.85 7.53 7.53 0 01.87 2.31l.57 2.8a6.06 6.06 0 01-.13 3.48 3.46 3.46 0 01-2 2l0 .18a4.69 4.69 0 011.48.21 3.94 3.94 0 011.34.74 4.52 4.52 0 011.1 1.34 7.23 7.23 0 01.73 2.11zM159.43 125l-.09-1.74a4.35 4.35 0 00-.88-2.66 3 3 0 00-2.56-.86 3.05 3.05 0 00-2.39 1 3.4 3.4 0 00-.67 2.29l.06 1.2a3.53 3.53 0 00.45 1.68 5.66 5.66 0 001.5 1.49c.54.38 1.13.76 1.78 1.14l1.92 1.13c.63.36 1.25.73 1.85 1.1A17.62 17.62 0 01162 131.9a6.56 6.56 0 011.74 2.08 8.22 8.22 0 01.73 3.33l.09 1.88a7.77 7.77 0 01-1.5 5.58c-1.12 1.33-3 2-5.72 2.18s-4.66-.42-5.88-1.67a8.3 8.3 0 01-2-5.64l-.08-1.74 3.9-.19.09 1.79a4.24 4.24 0 001 2.81 3.34 3.34 0 002.75.83 3.45 3.45 0 002.44-.94 3.52 3.52 0 00.75-2.71l-.07-1.38a6.77 6.77 0 00-.15-1.21 3.19 3.19 0 00-.37-1 3.23 3.23 0 00-.66-.8c-.27-.24-.6-.51-1-.8a26.94 26.94 0 00-3.38-2.19 17.82 17.82 0 01-3.19-2.24 9 9 0 01-1.86-2.4 7.36 7.36 0 01-.75-3.09l-.07-1.33a7.15 7.15 0 011.49-5c1.09-1.32 2.9-2 5.44-2.17a8.74 8.74 0 013.48.43 5.51 5.51 0 012.28 1.55 6.41 6.41 0 011.3 2.47 14 14 0 01.49 3.15l.07 1.34zM175.4 146.63l1.51-26.77-5.1-.29.21-3.72 14.38.81-.21 3.72-5.19-.29-1.52 26.78zM206.76 119.59l4 .69L206.81 143a8.27 8.27 0 01-2.75 5.34 6.84 6.84 0 01-5.64 1 7.2 7.2 0 01-4.94-2.77c-1-1.45-1.31-3.45-.87-6l4-22.85 4 .69-4 23.07q-.62 3.54 2.47 4.07t3.74-3zM212.5 152l8.78-29.25 7.22 2.16q6.66 2 4.64 8.74L228.52 149c-.73 2.43-1.82 4.07-3.29 4.89a6.87 6.87 0 01-5.5.25zm8-1.48a2.51 2.51 0 002.77-.51 8.51 8.51 0 001.62-3.26l3.86-12.87a7.84 7.84 0 00.37-3.54 2.73 2.73 0 00-2.21-2l-2.87-.86-6.63 22.12zM236.78 160.25l5.06-11.9 1.36-18.57 3.69 1.57-1 12.76.17.07 8.31-9.66 3.6 1.54-12.29 14-5 11.85z" class="colore19717 svgShape"/><path fill="#73b4cc" d="M133.9 234.05a1.76 1.76 0 00-.2-.54 3.47 3.47 0 00-2-1.33 65.44 65.44 0 00-9.84-2.52 3.23 3.23 0 01-1.33-.45c-1-.74-.83-2.39-1.64-3.37a5.1 5.1 0 00-2.73-1.21c-2-.54-2.86-1.85-4.44-2.85s-3.23-.24-4.65-1.14c-.6-.38-.93-1.07-1.44-1.56-.12-.13-.31-.25-.47-.17a.47.47 0 00-.2.29c-.22.59-.92 2.51-1.7 1.23-.33-.54.46-1.7.52-2.27s-1.48.26-2.06.9-.24 1.43-1.4.95-1.78-1.4-2.7-.82-1.78-.29-1.64-2.65-.77-3.09-2.41-3.09-1-1.4-.43-2.75c.65-1.52-1.08-3.36-1.61-1.56-.18.6-.15 1.37-.68 1.7s-1.23-.09-1.64-.56c-1.91-2.2-1.35-5.57-.49-8.36a.91.91 0 01.25-.46 1.46 1.46 0 01.55-.21 3.75 3.75 0 011.86.24c3 1.43 5.81 7.39 6 .26 0-1.15 1.31-1.83 2.06-2.7a13.92 13.92 0 001.67-2.9c.82-1.63 7.78-6.06 8.33-6a3.3 3.3 0 002.32-1c.37-.3.18-1.48-.56-1.53a1.7 1.7 0 01-1.58-1.32c-.11-.74 0-4 1.91-3.41a4.28 4.28 0 001.56.36c1-.1 3.47-.48 3.92-1.57a3.47 3.47 0 00-.61-3.76c-1.07-.93-2.32-1.26-2.13-2.35s-4.88-5.27-4.88-5.27H96.76L80.17 184.75S80.46 193.43 82 199s2.51 5.69 2.32 8.2 1.73 1.35 2.89 3.42 1.45 2.27 2.46 1.69.82 1.4 1 2.07 2-.19 2.41.53 1.69 1.79 1.78 3.38 1.52 1.19 2 2.28a1.12 1.12 0 002 0c.07-.64 2.38 1.16 1.48 2.71s-2.44 2.25-2 3.4 1.8.84 1 2-.83 1.73.52 2.57a8 8 0 013.54 4.89c.9 2.83 2.76 2.64 3.66 3a7.66 7.66 0 013.28 5.53c.07 2.57.65 2.9 1.22 4.44s1 .77 1 2.77 2 1.73 2.44 3.27c.62 2.13 1.39 4.21 2.12 6.3a26.13 26.13 0 002.33-2.41 3 3 0 00.29-1.86c0-.27-.66-1.36-.55-1.53a.38.38 0 01.18-.12c.94-.4 2.69-.58 3-1.72a1.48 1.48 0 00-.13-1.09c.19.37 2.14-1.22 2.3-1.36a4.78 4.78 0 001.39-2.6c.17-1 0-2.22.72-3a4.54 4.54 0 012.56-1c3.4-.82 1.23-3.54 1.86-5.78.38-1.37 1.82-2 2.5-3.16A2.61 2.61 0 00133.9 234.05zM228.45 191.79c.9-2.83 2-3.47 1.87-6.3a30.8 30.8 0 00-6.82-16.72c-5.23-6.58-39.81-11.1-42.88-11.49a1.05 1.05 0 00-.43 0l-16.36 5.25a1 1 0 00-.64.59 11.9 11.9 0 01-2.14 3.68c-1.29 1.22.9 3.47 1.15 4.76s1.74.51 2.19-.33 1.1-.7 1.22-.19a2.5 2.5 0 00.9 1.48c.65.58.39 2 0 2.7s.39 1.08 1.31 0 .77-1.46 1.4-1.94-1.11-1.84-.44-2.56 1.54-1.93.77-2.36-1.93-1.07-1.93-2.13 1-2.55 1.69-2.36 1.26.14 1.26 1.45.24 2.65 1 2.6.48 1 1.06 1-.29-1.35.77-1.78 2.51-1.3 2.9-.43-.19 1.73-1.3 1.73-1.89.73-1.64 1.45 1.2.53 1.35 1.35-2.08 0-2.17.53.21 1.09.91 1.93a1.54 1.54 0 01-.89 2.36c-.92.17-2-.24-2.44 0s-.82 1.59-1.71 1.28-.41-.94-1.16-.79-1.4.62-1.56-.68-.34-2.7-.63-2.94-1.79-.2-1.3 1.59 1.06 2.7 1.15 3.42-.77-.09-1.44 0-.44 1.31-1.26 2.46-1.2.63-1.73.82.43 1.07-.29 1.84-1.06.38-1.79.29-.09.91-.34 1.35-1.35-.92-2.12-.24.24 1.2 1.59 1.49a2.93 2.93 0 011.93 3.57c-.53 1.4-1.35 1.26-2.65 1.06s-5-.48-4.15 1.45 1.26 1.88.73 2.6-.54 2 1.1 2.51 2 .58 2 1.55a1.79 1.79 0 01-1.11 1.73c-.43.1-1.25 0-1.54 1.93s-.48 1.93-1.33 2.46-2.48 1.55-2.82 3.33-2.07 1-2.07 2.32 2.55 2.7 2.17 4-2.56 2.9-.92 4.29 2.31 1.31 3.52 3.24 2.41 1.06 3.71 2.36 1.55.43 2.32 0a4.87 4.87 0 013.58 0c.76.48.71-.48 2.93-1.59s2.37-.82 2.94.72 3.86-1.73 4.15 0a17.36 17.36 0 01-.1 4.23 1 1 0 00.51 1c1 .57 2.83 1.89 3 3.94.19 2.8 0 2.51-1.16 3s-1.54 3.38-.09 4.44 1.61 1.06 1.63 3.19a1.11 1.11 0 00.24.66c1.35 1.6 2.41 2.49 2.47 4.13a1 1 0 001.17.94c2-.36 1.54-1.19 3.26-1.11 2 .1 1.84-1.16 3.67-2.51s2.7-2.73 2.77-3.82 1.54-.45 1.67-1.87-1.55-1.09.45-3.09 3.09-1.8 3.66-3.34-1.09-5.53-.45-7.53 4.25-5.46 5.73-7.46 2.83-5.4 2.31-6.23-3.53 1.54-4.63 1.86-6.17-7.52-7.78-9.39a10 10 0 01-1.46-2.21 1 1 0 011.69-1.11l0 0c1 1.35 2 1.48 2.64 3s.45 1.74 1.6 2.19c.88.34 1.87 2.27 2.35 3.75a1 1 0 001.46.57 14.37 14.37 0 004.55-3.36c1.1-1.47 3.48-2.63 3.48-3.47a3.21 3.21 0 01.21-1.74 1 1 0 00-.35-1.25c-1.07-.75-1.21-.46-1.53-.35-.33-1.16.06-1.1-.33-1.16a3.36 3.36 0 00-1.8 1.17 1 1 0 01-1.28.14c-2.25-1.45-3.1-2.12-3.16-3.05s-.19-2.31 1.55-1 2.7 2.45 3.34 1.93.2-2.25 1.42-1.28.71 1.54 1.73 1.28 3-1.48 4.06-1.67c.69-.13 1.41.79 2 1.67a1 1 0 001.59.12c.29-.32.46-.34.87.33.71 1.16-.12 1.87 1 4.06s1.8 5.14 2.64 5.27 1-4.31.84-5.66.38-.84.77-2.51 1.22-1.54 1.61-4.05.9-.9.9-.9.7-1.74 1-1.48a5.83 5.83 0 011.93 3.92c.9-.7 1-.13 1 .07a29.6 29.6 0 01.45 3.15c0 1 .7-1.16 1-1.87s.84 1 1.29 1.87.58-.19.58-1.61.45-1.86.39-2.89S227.55 194.62 228.45 191.79zm-70.91 14.3c-1.06 2.72-3.57 2.2-4.92 1.2-1.15-.86.6-1.5 2.28-2.11a1 1 0 00.67-.94 1.67 1.67 0 011.1-1.64C158.3 201.82 158.6 203.37 157.54 206.09zM189 195.91c.5 1.41.25 2.57-1.3 2.5s-1.8 1.23-2.89 1.55-4.12-1-5.4-.9.83 2.06-1.67 1.93a11.27 11.27 0 01-4.89-1.29c-1.1-.51-3.41.84-3.41-.51s1.16-3.61-.64-3.48c-3.13.23-1.29 1.23-4.06 1.48s-2-.25-3.34 1-4.44.7-4.44.7-.77-1.5.58-1.52 1.48-.66 2.44-1.18-.45-.83.39-2.57 1.8-.71 2-1.67-.41-2.25.41-2.25 1.78 1.09 2.62 0a5.24 5.24 0 011.12-1.11 1 1 0 011.18 0 13.71 13.71 0 012.07 1.72c1.48 1.48 1.22.19 2.32 1.22s1.73 1.52 1.73 2.11c-.38-2.24.26-2.11-1.73-3.2s-3.22-1.61-2.9-3.22 1-1.29 2.38 0 2.38 2.12 3.47 2.06c1.55 1.48.65 1.35.84 2.51s1.48.25 1.8 1.22.13 1.8.9 1.48.77-1.05 0-1.91-.9-1.57-.51-1.82 1.09 0 1.67-.58 1-.77 1.74.77.25 2.77 1.8 3 1.48-.26 2.12-.84 1.16-.06 1.48 1.1.51 1.15.71.51-.84-1.43 0-2.1 1.35.11 1.86 1.26S189.36 195.2 189 195.91zm2.43-9.84c.39 1.86-.91 2.63-2.43 2.34-1-.19-2.06-.45-2.64-.61a1 1 0 00-.85.15c-2.09 1.41-5.21 2.38-4.37-.28.9-2.83.39-4.76 1.55-4.76s1 2.18 2.18 1.74.65-.32 1-1.74 1.29-2.7 1.93-1.8-1.12 3.24-.35 3.54m10.8 5.4c-2.41-1.25-1.25-2.12-1.25-3.49s-1.83.12-1.6-1.43-1.29-1-1.58-2.6c-.19-1.08 1.25-2.37 2.25-3.13a1 1 0 011.49.29c.24.39.48.81.6 1 .25.51-1.1-.39-1.74 1.48s2.38.83 1.87 1.54-.45 1.48-.07 1.16 1.93-.84 1.87.13-1.93.48-.87 1 1.06 2 1.35 2.83S200.67 191.31 198.25 190.05z" class="color606060 svgShape"/><path fill="#73b4cc" d="M243.57 185.1c0 47.07-38.29 83.74-85.35 83.74-46.3 0-83.83-35.5-85-81.46l-2.64 0c-.16 2.16-.27 4.33-.27 6.52 0 48 38.9 83.06 86.87 83.06S244 241.91 244 193.93Q244 189.46 243.57 185.1zM156.71 179.06c-.09.89-1.87.48-1.39 1.35s.94.86.64 1.68-.64 1.11.42.58a12.75 12.75 0 012.75-.62c.73-.24.92-2.08.39-2.32s-1.16-.29-1.11-1.25-1-.68-1.11-1.35.08-1.4-.59-1.26-1.58-.29-.66-.67 1.62-.68.66-1.11-1.86-.05-1.5-.73a4.44 4.44 0 01.69-1s-2.89.1-2.31 1.5-.53 1.93.77 2.75S156.8 178.24 156.71 179.06zM152.3 182.21a11.93 11.93 0 011.61-1.4c.9-.66-.39-.92 0-2s-.58-2.09-1.1-1.39-.06 1.48-1.28 1.39.13.59 0 2S152.3 182.21 152.3 182.21z" class="color606060 svgShape"/><path fill="#73b4cc" d="M196.71 236.06c-.34.43-.29.87-.16 2s.89 1.38 1.63.57c1.16-1.25 1.76-3.79 2.42-5.58s1.48-2.51 1.16-3.34-1.48.13-1.87 1.28-1.15 1.61-2.63 1.8c-.92.12-.65 1.1-.32 1.83A1.36 1.36 0 01196.71 236.06zM228.06 214.75c-1.54 1.45-2 5.4-3.85 8.49s-3 7.83 0 6.18 2.5-1.84 3.76-5.6S229.61 213.3 228.06 214.75z" class="color606060 svgShape"/><path fill="#ececec" d="M50.17,111.14,0,88.37,160.92,0,315.28,92.61l-52.87,21.62S209.94,68.82,121.56,82.58c0,0,67.41-32.31,143.55,18.91l23.15-10.93L161,17.48,20.12,89.08Z" class="color1e2838 svgShape"/><rect width="5.92" height="43.48" x="273.09" y="105.48" fill="#ececec" class="color1e2838 svgShape"/><rect width="28.94" height="5.11" x="262.02" y="146.16" fill="#ececec" class="color1e2838 svgShape"/><path fill="#ececec" d="M247.36,120.66s-87-65.35-191.92,4.11V200.1s109-69.45,201.57-15.54c0,0-69.26-64.06-188.54-6.56V131.36S134,73.45,247.36,120.66Z" class="color1e2838 svgShape"/><polygon fill="#ececec" points="271.29 160.79 265.37 243.37 285.95 243.37 280.55 160.79 271.29 160.79" class="color1e2838 svgShape"/></svg></svg>